<mxfile host="app.diagrams.net" agent="Mozilla/5.0 (Macintosh; Intel Mac OS X 10_15_7) AppleWebKit/537.36 (KHTML, like Gecko) Chrome/137.0.0.0 Safari/537.36" version="27.1.3">
  <diagram name="Page-1" id="BWXv7YjsgEe5QeZfdB2s">
    <mxGraphModel grid="1" page="1" gridSize="10" guides="1" tooltips="1" connect="1" arrows="1" fold="1" pageScale="1" pageWidth="850" pageHeight="1100" math="0" shadow="0">
      <root>
        <mxCell id="0" />
        <mxCell id="1" parent="0" />
        <mxCell id="IKW4jBrlAOUfcANJn2SE-71" style="edgeStyle=orthogonalEdgeStyle;rounded=0;orthogonalLoop=1;jettySize=auto;html=1;entryX=1;entryY=0.5;entryDx=0;entryDy=0;dashed=1;endArrow=block;endFill=0;strokeWidth=2;" edge="1" parent="1" source="IKW4jBrlAOUfcANJn2SE-4" target="IKW4jBrlAOUfcANJn2SE-35">
          <mxGeometry relative="1" as="geometry">
            <Array as="points">
              <mxPoint x="800" y="308" />
              <mxPoint x="800" y="193" />
            </Array>
          </mxGeometry>
        </mxCell>
        <mxCell id="IKW4jBrlAOUfcANJn2SE-4" value="ConcreteElementA" style="swimlane;fontStyle=1;align=center;verticalAlign=top;childLayout=stackLayout;horizontal=1;startSize=30;horizontalStack=0;resizeParent=1;resizeParentMax=0;resizeLast=0;collapsible=1;marginBottom=0;whiteSpace=wrap;html=1;" vertex="1" parent="1">
          <mxGeometry x="580" y="280" width="160" height="56" as="geometry" />
        </mxCell>
        <mxCell id="IKW4jBrlAOUfcANJn2SE-7" value="+ accept(v: Visitor)" style="text;strokeColor=none;fillColor=none;align=left;verticalAlign=top;spacingLeft=4;spacingRight=4;overflow=hidden;rotatable=0;points=[[0,0.5],[1,0.5]];portConstraint=eastwest;whiteSpace=wrap;html=1;" vertex="1" parent="IKW4jBrlAOUfcANJn2SE-4">
          <mxGeometry y="30" width="160" height="26" as="geometry" />
        </mxCell>
        <mxCell id="IKW4jBrlAOUfcANJn2SE-44" style="edgeStyle=orthogonalEdgeStyle;rounded=0;orthogonalLoop=1;jettySize=auto;html=1;exitX=1;exitY=0.5;exitDx=0;exitDy=0;entryX=0.5;entryY=0;entryDx=0;entryDy=0;strokeWidth=2;" edge="1" parent="1" source="IKW4jBrlAOUfcANJn2SE-12" target="IKW4jBrlAOUfcANJn2SE-35">
          <mxGeometry relative="1" as="geometry" />
        </mxCell>
        <mxCell id="IKW4jBrlAOUfcANJn2SE-78" style="edgeStyle=orthogonalEdgeStyle;rounded=0;orthogonalLoop=1;jettySize=auto;html=1;strokeWidth=2;" edge="1" parent="1" source="IKW4jBrlAOUfcANJn2SE-12" target="IKW4jBrlAOUfcANJn2SE-46">
          <mxGeometry relative="1" as="geometry">
            <Array as="points">
              <mxPoint x="40" y="100" />
            </Array>
          </mxGeometry>
        </mxCell>
        <mxCell id="IKW4jBrlAOUfcANJn2SE-79" style="edgeStyle=orthogonalEdgeStyle;rounded=0;orthogonalLoop=1;jettySize=auto;html=1;strokeWidth=2;" edge="1" parent="1" source="IKW4jBrlAOUfcANJn2SE-12" target="IKW4jBrlAOUfcANJn2SE-59">
          <mxGeometry relative="1" as="geometry">
            <Array as="points">
              <mxPoint x="320" y="100" />
            </Array>
          </mxGeometry>
        </mxCell>
        <mxCell id="IKW4jBrlAOUfcANJn2SE-12" value="&lt;b&gt;Client&lt;/b&gt;" style="html=1;whiteSpace=wrap;" vertex="1" parent="1">
          <mxGeometry x="360" y="80" width="120" height="40" as="geometry" />
        </mxCell>
        <mxCell id="IKW4jBrlAOUfcANJn2SE-72" style="edgeStyle=orthogonalEdgeStyle;rounded=0;orthogonalLoop=1;jettySize=auto;html=1;dashed=1;endArrow=block;endFill=0;strokeWidth=2;" edge="1" parent="1" source="IKW4jBrlAOUfcANJn2SE-14" target="IKW4jBrlAOUfcANJn2SE-35">
          <mxGeometry relative="1" as="geometry">
            <Array as="points">
              <mxPoint x="800" y="428" />
              <mxPoint x="800" y="193" />
            </Array>
          </mxGeometry>
        </mxCell>
        <mxCell id="IKW4jBrlAOUfcANJn2SE-14" value="ConcreteElementB" style="swimlane;fontStyle=1;align=center;verticalAlign=top;childLayout=stackLayout;horizontal=1;startSize=30;horizontalStack=0;resizeParent=1;resizeParentMax=0;resizeLast=0;collapsible=1;marginBottom=0;whiteSpace=wrap;html=1;" vertex="1" parent="1">
          <mxGeometry x="580" y="400" width="160" height="56" as="geometry" />
        </mxCell>
        <mxCell id="IKW4jBrlAOUfcANJn2SE-15" value="+ accept(v: Visitor)" style="text;strokeColor=none;fillColor=none;align=left;verticalAlign=top;spacingLeft=4;spacingRight=4;overflow=hidden;rotatable=0;points=[[0,0.5],[1,0.5]];portConstraint=eastwest;whiteSpace=wrap;html=1;" vertex="1" parent="IKW4jBrlAOUfcANJn2SE-14">
          <mxGeometry y="30" width="160" height="26" as="geometry" />
        </mxCell>
        <mxCell id="IKW4jBrlAOUfcANJn2SE-80" style="edgeStyle=orthogonalEdgeStyle;rounded=0;orthogonalLoop=1;jettySize=auto;html=1;strokeWidth=2;" edge="1" parent="1" source="IKW4jBrlAOUfcANJn2SE-27" target="IKW4jBrlAOUfcANJn2SE-4">
          <mxGeometry relative="1" as="geometry">
            <Array as="points">
              <mxPoint x="480" y="380" />
              <mxPoint x="480" y="308" />
            </Array>
          </mxGeometry>
        </mxCell>
        <mxCell id="IKW4jBrlAOUfcANJn2SE-81" style="edgeStyle=orthogonalEdgeStyle;rounded=0;orthogonalLoop=1;jettySize=auto;html=1;strokeWidth=2;" edge="1" parent="1" source="IKW4jBrlAOUfcANJn2SE-27" target="IKW4jBrlAOUfcANJn2SE-14">
          <mxGeometry relative="1" as="geometry">
            <mxPoint x="270" y="380" as="sourcePoint" />
            <mxPoint x="570" y="428" as="targetPoint" />
            <Array as="points">
              <mxPoint x="480" y="380" />
              <mxPoint x="480" y="428" />
            </Array>
          </mxGeometry>
        </mxCell>
        <mxCell id="IKW4jBrlAOUfcANJn2SE-27" value="«interface»&lt;br&gt;&lt;b&gt;Visitor&lt;/b&gt;" style="swimlane;fontStyle=0;childLayout=stackLayout;horizontal=1;startSize=40;fillColor=none;horizontalStack=0;resizeParent=1;resizeParentMax=0;resizeLast=0;collapsible=1;marginBottom=0;whiteSpace=wrap;html=1;" vertex="1" parent="1">
          <mxGeometry x="80" y="320" width="200" height="92" as="geometry" />
        </mxCell>
        <mxCell id="IKW4jBrlAOUfcANJn2SE-28" value="+ visitA(e: ConcreteElementA)" style="text;strokeColor=none;fillColor=none;align=left;verticalAlign=top;spacingLeft=4;spacingRight=4;overflow=hidden;rotatable=0;points=[[0,0.5],[1,0.5]];portConstraint=eastwest;whiteSpace=wrap;html=1;" vertex="1" parent="IKW4jBrlAOUfcANJn2SE-27">
          <mxGeometry y="40" width="200" height="26" as="geometry" />
        </mxCell>
        <mxCell id="IKW4jBrlAOUfcANJn2SE-29" value="+ visitB(e: ConcreteElementB)" style="text;strokeColor=none;fillColor=none;align=left;verticalAlign=top;spacingLeft=4;spacingRight=4;overflow=hidden;rotatable=0;points=[[0,0.5],[1,0.5]];portConstraint=eastwest;whiteSpace=wrap;html=1;" vertex="1" parent="IKW4jBrlAOUfcANJn2SE-27">
          <mxGeometry y="66" width="200" height="26" as="geometry" />
        </mxCell>
        <mxCell id="IKW4jBrlAOUfcANJn2SE-82" style="edgeStyle=orthogonalEdgeStyle;rounded=0;orthogonalLoop=1;jettySize=auto;html=1;strokeWidth=2;" edge="1" parent="1" source="IKW4jBrlAOUfcANJn2SE-35" target="IKW4jBrlAOUfcANJn2SE-27">
          <mxGeometry relative="1" as="geometry">
            <Array as="points">
              <mxPoint x="660" y="260" />
              <mxPoint x="420" y="260" />
              <mxPoint x="420" y="366" />
            </Array>
          </mxGeometry>
        </mxCell>
        <mxCell id="IKW4jBrlAOUfcANJn2SE-35" value="«interface»&lt;br&gt;&lt;b&gt;Element&lt;/b&gt;" style="swimlane;fontStyle=0;childLayout=stackLayout;horizontal=1;startSize=40;fillColor=none;horizontalStack=0;resizeParent=1;resizeParentMax=0;resizeLast=0;collapsible=1;marginBottom=0;whiteSpace=wrap;html=1;" vertex="1" parent="1">
          <mxGeometry x="600" y="160" width="120" height="66" as="geometry" />
        </mxCell>
        <mxCell id="IKW4jBrlAOUfcANJn2SE-36" value="&lt;meta charset=&quot;utf-8&quot;&gt;&lt;span style=&quot;color: rgb(0, 0, 0); font-family: Helvetica; font-size: 12px; font-style: normal; font-variant-ligatures: normal; font-variant-caps: normal; font-weight: 400; letter-spacing: normal; orphans: 2; text-align: left; text-indent: 0px; text-transform: none; widows: 2; word-spacing: 0px; -webkit-text-stroke-width: 0px; white-space: normal; background-color: rgb(236, 236, 236); text-decoration-thickness: initial; text-decoration-style: initial; text-decoration-color: initial; display: inline !important; float: none;&quot;&gt;+ accept(v: Visitor)&lt;/span&gt;" style="text;strokeColor=none;fillColor=none;align=left;verticalAlign=top;spacingLeft=4;spacingRight=4;overflow=hidden;rotatable=0;points=[[0,0.5],[1,0.5]];portConstraint=eastwest;whiteSpace=wrap;html=1;" vertex="1" parent="IKW4jBrlAOUfcANJn2SE-35">
          <mxGeometry y="40" width="120" height="26" as="geometry" />
        </mxCell>
        <mxCell id="IKW4jBrlAOUfcANJn2SE-76" style="edgeStyle=orthogonalEdgeStyle;rounded=0;orthogonalLoop=1;jettySize=auto;html=1;dashed=1;endArrow=block;endFill=0;strokeWidth=2;" edge="1" parent="1" source="IKW4jBrlAOUfcANJn2SE-46" target="IKW4jBrlAOUfcANJn2SE-27">
          <mxGeometry relative="1" as="geometry">
            <Array as="points">
              <mxPoint x="40" y="350" />
            </Array>
          </mxGeometry>
        </mxCell>
        <mxCell id="IKW4jBrlAOUfcANJn2SE-46" value="&lt;span style=&quot;font-weight: 700;&quot;&gt;ConcreteVisitor1&lt;/span&gt;" style="swimlane;fontStyle=0;childLayout=stackLayout;horizontal=1;startSize=26;fillColor=none;horizontalStack=0;resizeParent=1;resizeParentMax=0;resizeLast=0;collapsible=1;marginBottom=0;whiteSpace=wrap;html=1;" vertex="1" parent="1">
          <mxGeometry x="-40" y="160" width="200" height="80" as="geometry" />
        </mxCell>
        <mxCell id="IKW4jBrlAOUfcANJn2SE-47" value="+ visitA(e: ConcreteElementA)" style="text;strokeColor=none;fillColor=none;align=left;verticalAlign=top;spacingLeft=4;spacingRight=4;overflow=hidden;rotatable=0;points=[[0,0.5],[1,0.5]];portConstraint=eastwest;whiteSpace=wrap;html=1;" vertex="1" parent="IKW4jBrlAOUfcANJn2SE-46">
          <mxGeometry y="26" width="200" height="26" as="geometry" />
        </mxCell>
        <mxCell id="IKW4jBrlAOUfcANJn2SE-49" value="+ visitB(e: ConcreteElementB)" style="text;strokeColor=none;fillColor=none;align=left;verticalAlign=top;spacingLeft=4;spacingRight=4;overflow=hidden;rotatable=0;points=[[0,0.5],[1,0.5]];portConstraint=eastwest;whiteSpace=wrap;html=1;" vertex="1" parent="IKW4jBrlAOUfcANJn2SE-46">
          <mxGeometry y="52" width="200" height="28" as="geometry" />
        </mxCell>
        <mxCell id="IKW4jBrlAOUfcANJn2SE-77" style="edgeStyle=orthogonalEdgeStyle;rounded=0;orthogonalLoop=1;jettySize=auto;html=1;dashed=1;endArrow=block;endFill=0;strokeWidth=2;" edge="1" parent="1" source="IKW4jBrlAOUfcANJn2SE-59" target="IKW4jBrlAOUfcANJn2SE-27">
          <mxGeometry relative="1" as="geometry">
            <Array as="points">
              <mxPoint x="320" y="350" />
            </Array>
          </mxGeometry>
        </mxCell>
        <mxCell id="IKW4jBrlAOUfcANJn2SE-59" value="&lt;span style=&quot;font-weight: 700;&quot;&gt;ConcreteVisitor2&lt;/span&gt;" style="swimlane;fontStyle=0;childLayout=stackLayout;horizontal=1;startSize=26;fillColor=none;horizontalStack=0;resizeParent=1;resizeParentMax=0;resizeLast=0;collapsible=1;marginBottom=0;whiteSpace=wrap;html=1;" vertex="1" parent="1">
          <mxGeometry x="200" y="160" width="200" height="80" as="geometry" />
        </mxCell>
        <mxCell id="IKW4jBrlAOUfcANJn2SE-60" value="+ visitA(e: ConcreteElementA)" style="text;strokeColor=none;fillColor=none;align=left;verticalAlign=top;spacingLeft=4;spacingRight=4;overflow=hidden;rotatable=0;points=[[0,0.5],[1,0.5]];portConstraint=eastwest;whiteSpace=wrap;html=1;" vertex="1" parent="IKW4jBrlAOUfcANJn2SE-59">
          <mxGeometry y="26" width="200" height="26" as="geometry" />
        </mxCell>
        <mxCell id="IKW4jBrlAOUfcANJn2SE-61" value="+ visitB(e: ConcreteElementB)" style="text;strokeColor=none;fillColor=none;align=left;verticalAlign=top;spacingLeft=4;spacingRight=4;overflow=hidden;rotatable=0;points=[[0,0.5],[1,0.5]];portConstraint=eastwest;whiteSpace=wrap;html=1;" vertex="1" parent="IKW4jBrlAOUfcANJn2SE-59">
          <mxGeometry y="52" width="200" height="28" as="geometry" />
        </mxCell>
      </root>
    </mxGraphModel>
  </diagram>
</mxfile>
